<svg xmlns="http://www.w3.org/2000/svg" xmlns:xlink="http://www.w3.org/1999/xlink" width="368" height="321" viewBox="0 0 368 321">
    <defs>
        <rect id="g0p77echyc" width="189.431" height="228.869" x=".115" y=".397" rx="5.906"/>
        <rect id="bsxzu6x74e" width="103.716" height="110.475" x="0" y="0" rx="5.906"/>
        <path id="qyk6wpvvba" d="M48.774 236.054C-38.65 137.391-5.336 4.4 122.994.13c128.328-4.27 20.774 99.065 123.275 121.01 102.5 21.943 44.753 99.82 21.943 125.02-22.81 25.201-132.012 88.558-219.438-10.105z"/>
    </defs>
    <g fill="none" fill-rule="evenodd">
        <g transform="translate(.085 .22)">
            <g transform="translate(62.374 5.069)">
                <mask id="x8s2j1rzob" fill="#fff">
                    <use xlink:href="#qyk6wpvvba"/>
                </mask>
                <g mask="url(#x8s2j1rzob)">
                    <g>
                        <path fill="#F4CE45" d="M341.452 294.91c13.694-69.491 27.028-239.015-12.328-244.663-39.356-5.648-264.766 212.429-237.793 262.96 26.973 50.53 233.59 65.59 250.121-18.296z" transform="translate(-36.46 -49.758)"/>
                        <path fill="#FA7592" d="M33.068 82.465c4.732 63.382 267.25 101.042 296.444 150.69 29.194 49.648 44.688-180.495 0-216.67C284.825-19.69 27.356 5.954 33.068 82.465z" transform="translate(-36.46 -49.758)"/>
                        <path fill="#EF90A4" d="M43.18 96.437c46.236 73.361 105.522 55.885 155.924 154.19 68.09 119.951-195.549 154.56-195.079 37.32.47-117.239-16.66-280.069 39.155-191.51z" transform="translate(-36.46 -49.758)"/>
                        <path fill="#7776B6" d="M.075 80.576c3.981 81.693 77.718 126.78 121.356 123.06C258.92 191.91 264.611 39.25 243.135 15.81 221.659-7.629-4.73-18.039.075 80.576z" transform="translate(-36.46 -49.758)"/>
                    </g>
                </g>
            </g>
            <rect width="189.782" height="229.22" x="94.287" y="59.786" fill="#575FCF" fill-rule="nonzero" opacity=".1" rx="6.082"/>
            <g transform="translate(86.415 50.78)">
                <rect width="189.782" height="229.22" x=".44" y=".222" fill="#FFF" fill-rule="nonzero" rx="6.082"/>
                <rect width="189.431" height="228.869" x=".615" y=".397" stroke="#F8F8F8" stroke-width=".5" rx="5.906"/>
            </g>
            <g transform="translate(86.915 50.78)">
                <mask id="b6965h04fd" fill="#fff">
                    <use xlink:href="#g0p77echyc"/>
                </mask>
                <g fill="#E8E8E8" fill-rule="nonzero" mask="url(#b6965h04fd)">
                    <g transform="translate(28 21)">
                        <rect width="73.659" height="12.164" x=".322" y=".17" rx="6.082"/>
                        <rect width="33.113" height="6.758" x=".322" y="39.364" rx="3.379"/>
                        <rect width="46.628" height="6.758" x=".322" y="86.668" rx="3.379"/>
                        <rect width="46.628" height="5.406" x="11.134" y="52.88" rx="2.703"/>
                        <rect width="33.113" height="5.406" x="11.134" y="100.183" rx="2.703"/>
                        <rect width="60.144" height="5.406" x="11.134" y="113.023" rx="2.703"/>
                        <rect width="60.144" height="5.406" x="11.134" y="126.538" rx="2.703"/>
                        <rect width="60.144" height="5.406" x="11.134" y="140.054" rx="2.703"/>
                        <rect width="46.628" height="5.406" x="11.134" y="65.719" rx="2.703"/>
                    </g>
                </g>
            </g>
            <rect width="14.759" height="14.641" x="113.993" y="238.337" fill="#575FCF" fill-rule="nonzero" rx="7.321"/>
            <path fill="#FFF" fill-rule="nonzero" d="M121.751 245.774l.01 2.392c0 .206-.166.373-.373.372-.207-.001-.375-.169-.376-.376l-.009-2.39-2.391-.01c-.207-.001-.375-.169-.376-.375 0-.208.166-.375.373-.374l2.391.01-.01-2.39c0-.208.166-.375.373-.374.207.002.375.17.376.377l.009 2.39 2.391.01c.207 0 .375.168.376.375 0 .207-.166.374-.373.373l-2.391-.01z"/>
            <path fill="#CCC" d="M106.998 112.683c0-.29.233-.527.522-.527.288 0 .522.236.522.527 0 .291-.234.527-.522.527-.288 0-.522-.235-.522-.526zm0 2.811c0-.29.233-.526.522-.526.288 0 .522.236.522.526 0 .292-.234.528-.522.528-.288 0-.522-.236-.522-.528zm.522-1.932c-.288 0-.522.236-.522.527 0 .291.233.527.522.527.288 0 .522-.236.522-.527 0-.291-.234-.527-.522-.527zM108.403 112.683c0-.29.234-.527.522-.527.288 0 .522.236.522.527 0 .291-.234.527-.522.527-.288 0-.522-.235-.522-.526zm0 2.811c0-.29.234-.526.522-.526.288 0 .522.236.522.526 0 .292-.234.528-.522.528-.288 0-.522-.236-.522-.528zm.522-1.932c-.288 0-.522.236-.522.527 0 .291.234.527.522.527.288 0 .522-.236.522-.527 0-.291-.234-.527-.522-.527z"/>
            <rect width="7.379" height="7.3" x="114.547" y="122.785" fill="#FFF" fill-opacity=".061" fill-rule="nonzero" stroke="#CCC" stroke-width=".5" rx="2.635"/>
            <path stroke="#CCC" stroke-linecap="round" stroke-linejoin="round" stroke-width=".703" d="M119.466 125.392l-1.438 1.987c-.06.064-.143.1-.229.1-.085 0-.168-.036-.228-.1l-.74-.777"/>
            <rect width="7.379" height="7.3" x="114.547" y="170.089" fill="#FFF" fill-opacity=".061" fill-rule="nonzero" stroke="#CCC" stroke-width=".5" rx="2.635"/>
            <path stroke="#CCC" stroke-linecap="round" stroke-linejoin="round" stroke-width=".703" d="M119.466 172.696l-1.438 1.987c-.06.064-.143.099-.229.099-.085 0-.168-.036-.228-.099l-.74-.778"/>
            <rect width="7.379" height="7.3" x="114.547" y="182.929" fill="#FFF" fill-opacity=".061" fill-rule="nonzero" stroke="#CCC" stroke-width=".5" rx="2.635"/>
            <rect width="7.379" height="7.3" x="114.547" y="196.444" fill="#FFF" fill-opacity=".061" fill-rule="nonzero" stroke="#CCC" stroke-width=".5" rx="2.635"/>
            <rect width="7.379" height="7.3" x="114.547" y="209.959" fill="#FFF" fill-opacity=".061" fill-rule="nonzero" stroke="#CCC" stroke-width=".5" rx="2.635"/>
            <rect width="7.379" height="7.3" x="114.547" y="135.654" fill="#FFF" fill-opacity=".061" fill-rule="nonzero" stroke="#CCC" stroke-width=".5" rx="2.635"/>
            <path fill="#575FCF" d="M116.425 93.534c0-1.696 1.376-3.07 3.072-3.07h34.701c1.696 0 3.071 1.374 3.071 3.07 0 1.697-1.375 3.071-3.07 3.071h-34.703c-1.695 0-3.07-1.374-3.07-3.07z" opacity=".133"/>
            <rect width="15.975" height="6.141" x="116.425" y="90.464" fill="#575FCF" fill-rule="nonzero" rx="3.071"/>
            <path fill="#FF6876" d="M112.598 138.266l-5.624 3.983-7.773-6.17 2.613-5.901c.063-.131.142-.246.238-.345.35-.363.883-.487 1.372-.27.62.28.89.988.625 1.625l-1.425 3.22c.672-.596 1.36-1.177 2.03-1.773l4.097-5.298c.413-.526 1.189-.639 1.714-.228.525.412.634 1.187.221 1.714l-4.145 5.38 3.44-2.741c.529-.415 1.308-.333 1.721.194.413.526.328 1.305-.2 1.721l-.432.349c.5-.156 1.069.012 1.384.443.397.543.263 1.307-.298 1.691l-.24.183c.389-.007.78.179 1.028.514.349.561.215 1.326-.346 1.709z"/>
            <path fill="#000" d="M107.655 133.099l-.023-.004c-.063-.035-.078-.084-.066-.153l.855-1.826c.034-.065.083-.079.151-.068.063.035.078.085.066.154l-.855 1.826c-.034.064-.083.079-.128.071zM109.759 134.216l-.045-.008c-.064-.035-.074-.107-.043-.149l.742-1.448c.035-.065.106-.076.147-.046.064.035.074.108.043.15l-.742 1.448c-.004.023-.058.06-.102.053z"/>
            <path fill="#FF6876" d="M63.066 282.337c-.118.54-.233 1.057-.373 1.592-3.014.683-6.032 1.389-9.045 2.071-.029-.099-.745-1.813-2.608-2.141-1.841-.325-3.096 1.019-3.161 1.124.008-.046.038-.087.05-.154.008-.046.039-.087.073-.151.038-.087.081-.196.123-.305.035-.065.043-.11.078-.173l.003-.024c.035-.063.043-.108.077-.173.047-.131.115-.26.162-.392.038-.086.077-.173.111-.236l.116-.26c.046-.132.114-.26.157-.37.038-.087.073-.15.089-.241.047-.132.089-.241.154-.346.034-.065.072-.151.084-.219.008-.045.039-.087.047-.132.034-.064.042-.109.072-.15.005-.023.035-.065.039-.087.004-.023.008-.046.035-.064.008-.045.038-.086.046-.132.004-.023.008-.046.034-.064.17-.437.358-.848.55-1.281l13.087 2.308zM31.652 276.916c-.11.494-.216.965-.3 1.44-2.887.867-5.752 1.737-8.644 2.626-.09-.273-.543-1.518-1.865-2.171-1.833-.906-3.623.177-3.73.252.005-.023.009-.046.035-.064.004-.023.035-.064.043-.109.23-.519.683-1.512 1.06-2.332.046-.131.115-.259.184-.387.115-.259.222-.473.3-.646.034-.064.041-.11.072-.15.115-.26.227-.497.342-.757 3.655.692 8.686 1.603 12.503 2.298z"/>
            <path fill="#1F0D60" d="M31.322 278.36c-1.642.505-3.283 1.012-4.92 1.495-.392.118-.784.236-1.153.358-.858.27-1.69.521-2.544.768-.077-.224-.419-1.173-1.342-1.85-.164-.123-.328-.245-.544-.33-.19-.104-.407-.19-.587-.221-1.612-.448-3.04.423-3.142.476.188-.412.642-1.408 1.03-2.299.082-.196.185-.389.266-.584.247.043.54.094.858.127 2.187.339 5.63.923 8.258 1.386l1.191.21 2.629.464z"/>
            <path fill="#FFF" d="M19.206 276.442c-.06.341-.377.59-.729.528-.154-.027-.278-.096-.372-.207.08-.196.182-.39.262-.587.242.043.529.094.84.125.015.05.007.096-.001.141zM21.453 278.864c-.015.089-.054.175-.114.256-.165-.121-.329-.242-.546-.327-.19-.103-.408-.187-.588-.219.1-.305.41-.48.725-.425.364.041.586.357.523.715zM23.847 278.508c.348.061.679-.168.74-.512.06-.345-.172-.674-.52-.736-.348-.061-.68.168-.74.513-.06.344.172.673.52.735zM26.375 279.841c-.39.115-.781.231-1.15.35-.092-.131-.132-.3-.1-.478.059-.336.38-.579.739-.515.287.074.518.345.511.643zM28.689 278.128c-.06.334-.38.575-.74.512-.337-.06-.583-.378-.52-.734.012-.067.024-.134.058-.197l1.192.21c.037.053.025.12.01.209z"/>
            <path fill="#1F0D60" d="M62.703 283.968c-3.017.687-6.039 1.397-9.056 2.083-.029-.099-.745-1.819-2.61-2.147-1.124-.199-2.011.231-2.563.603-.366.24-.572.484-.598.503.077-.173.196-.457.324-.786.354-.829.84-2.009 1.114-2.64l13.394 2.361-.005.023z"/>
            <path fill="#FFF" d="M54.941 285.019c.361.064.706-.18.771-.546.064-.365-.177-.712-.538-.776-.361-.063-.706.18-.771.546-.064.365.177.712.538.776zM59.752 283.661c-.066.369-.411.616-.772.553-.36-.063-.578-.41-.513-.779.017-.092.051-.158.086-.223l1.194.211c.01.074.021.147.005.238zM52.218 282.333c-.065.368-.411.616-.772.552-.361-.063-.602-.414-.537-.783.017-.092.051-.157.086-.222l1.196.211c.033.077.043.15.027.242zM48.474 284.5c-.366.243-.572.489-.598.508.077-.175.197-.46.324-.791.127.069.227.158.274.284z"/>
            <path fill="#FFB800" d="M43.956 298.342l-25.334-7.818.04-2.235-2.087 1.609c-1.77-.518-3.557-1.064-5.328-1.582 1.082-1.748 2.193-3.511 3.289-5.303 1.088-1.77 2.149-3.525 3.231-5.273.114-.061 2.018-.913 3.724.207 1.23.805 1.527 2.091 1.585 2.372 2.964-.504 5.907-1.014 8.878-1.539l-2.286 6.542c3.357 2.03 6.097 3.585 7.989 4.642 3.623 2.015 5.825 3.072 6.435 5.361.288 1.163.091 2.274-.136 3.017zM79.143 297.604l-27.185-.542-.6-2.257-1.634 2.219c-1.595-.029-3.19-.056-4.785-.107.957-3.875 1.892-7.774 2.848-11.649.047-.092 1.078-1.626 2.947-1.616 1.891.033 2.843 1.624 2.91 1.718 2.87-1.155 5.74-2.332 8.61-3.488-.155 2.337-.334 4.675-.488 7.012 3.789 1.038 6.852 1.786 8.964 2.286 4.041.928 6.45 1.363 7.667 3.423.665 1.1.76 2.214.746 3.001z"/>
            <path fill="#1F0D60" d="M30.577 282.498l-4.246-.748c-.067-.012-.104-.065-.093-.132.012-.068.065-.105.133-.093l4.246.749c.067.012.104.065.092.132-.012.067-.065.104-.132.092zM30.362 283.72l-4.246-.749c-.068-.012-.105-.064-.093-.132.012-.067.065-.104.132-.092l4.246.749c.068.012.105.065.093.132-.012.067-.065.104-.132.093zM61.975 288.009l-4.242-.772c-.067-.012-.104-.065-.092-.133.012-.068.065-.106.133-.094l4.242.772c.067.012.104.065.092.133-.012.068-.065.106-.133.094zM61.76 289.231l-4.242-.772c-.068-.012-.104-.065-.092-.132.012-.068.087-.102.132-.094l4.242.771c.068.012.105.065.093.133-.013.068-.066.106-.133.094z"/>
            <path fill="#D4DFEB" d="M75.768 203.712c-13.046 1.49-26.095 3.002-39.14 4.492-7.555 21.829-15.087 43.662-22.618 65.495.202.036 2.246.396 5.071.917 3.702.677 8.729 1.587 12.543 2.282 2.758.51 4.892.886 5.454.985 5.492-18.145 11.002-36.263 16.494-54.409-2.43 18.639-4.837 37.281-7.263 55.897l3.639.642 13.094 2.308 5.682 1.002c2.363-26.534 4.703-53.073 7.044-79.611z"/>
            <path fill="#1F0D60" d="M65.948 282.922c-.045-.008-.104-.065-.096-.11 1.344-26.144 2.716-52.306 4.061-78.45.012-.067.065-.105.114-.12.067.013.104.066.118.115-1.344 26.143-2.716 52.306-4.06 78.448.006.096-.047.133-.137.117.023.004 0 0 0 0zM24.649 275.743l-.045-.008c-.064-.035-.074-.107-.044-.148l28.851-52.101c.035-.064.106-.075.148-.044.063.034.074.106.043.147l-28.83 52.106c-.03.041-.078.055-.123.048z"/>
            <path fill="#FF6876" d="M21.122 176.5l-3.72-10.263c-.059-.197-.116-.394-.17-.614-.376-1.282-.764-2.753-1.151-4.364-.019-.027-.01-.072-.03-.099l6.646 18.353c-.427-.73-.948-1.71-1.575-3.013zM63.325 205.184c-.165.018-.308.039-.473.056l-17.133-47.245c.133-.094.247-.214.379-.308l17.227 47.497zM68.31 204.648c-.166.018-.309.04-.474.057l-17.862-49.318c.053-.037.125-.048.2-.082.075-.033.15-.067.248-.096l17.888 49.439zM73.308 204.037c-.166.018-.309.04-.474.058L54.77 154.189c.165-.017.33-.035.469-.034l18.069 49.882zM78.296 203.477c-.166.017-.308.039-.474.056l-17.864-49.301c.139.001.322.01.487-.007l17.851 49.252zM79.678 194.19l-14.483-39.906.484.014 14.105 38.905c-.012.326-.068.643-.106.987zM81.008 183.468l-10.453-28.824c.176.054.352.109.531.14l10.032 27.674c-.038.344-.076.688-.11 1.01zM83.991 175.943c-.176-.055-.374-.113-.55-.167l-7.151-19.71c.176.055.374.113.55.168l7.151 19.709zM89.638 177.144l-.383-.067-.134-.023-6.84-18.851.582.243 6.775 18.698zM95.114 177.857l-.09-.015c-.135-.024-.273-.025-.412-.026l-6.049-16.679c.19.103.403.211.597.292l5.954 16.428zM100.322 177.934c-.166.018-.309.04-.47.035l-5.136-14.178c.176.054.356.086.535.118l5.07 14.025zM105.142 176.74c-.129.071-.275.115-.426.183l-5.699-15.709.16-.906 5.965 16.433zM109.085 173.299l-.298.509-8.782-24.228c.027-.417.028-.814.032-1.235l9.047 24.954zM110.801 165.007l-9.079-25.063c.162.006.341.037.503.042l8.623 23.835c-.023.394-.046.788-.047 1.186zM110.887 150.798l-3.806-10.475c.16.005.34.037.501.042l3.21 8.873c.046.523.071 1.042.095 1.56z"/>
            <path fill="#FF7D80" d="M18.724 154.095c-.152.066-.281.137-.43.181l-1.051-2.904c.148-.044.296-.088.44-.11l1.04 2.833z"/>
            <path fill="#FF6876" d="M30.902 187.724c-.18-.031-.356-.086-.532-.14l-12.085-33.309c.128-.071.279-.138.426-.182l12.19 33.631zM38.266 208.07c-.166.018-.309.039-.474.056l-2.1-5.826c.07-.269.137-.514.207-.783l2.367 6.553z"/>
            <path fill="#FF7D80" d="M23.184 152.052s-.153.067-.408.186l-.765-2.056c.149-.045.298-.089.442-.11l.716 1.93.015.05z"/>
            <path fill="#FF6876" d="M35.995 187.435l-.44.132-12.809-35.341c.253-.12.404-.186.404-.186l.012-.069 12.833 35.464zM43.254 207.509c-.165.018-.307.04-.472.057l-4.892-13.547c.07-.268.137-.513.207-.782l5.157 14.272zM48.272 206.928c-.166.018-.308.039-.473.056l-7.705-21.271-.08-.201-5.541-15.298.112.02c.116-.003.255-.002.371-.005l13.316 36.698zM53.29 206.346c-.166.018-.309.04-.474.057l-14.224-39.187c.061-.083.122-.166.187-.272l.13-.21 14.38 39.612zM58.283 205.761c-.166.018-.308.039-.474.056l-15.845-43.712c.118-.142.214-.29.331-.432l15.988 44.088zM74.386 141.744c.675-.934 1.374-1.887 2.049-2.821-1.306-.605-2.633-1.214-3.937-1.818-1.32-1.964-2.417-3.351-2.806-3.771-.443-.5-.885-.882-.885-.882-.123-.091-.2-.175-.3-.263-.014.466-.134 1.544-.877 2.607-.868 1.251-2.039 1.723-2.456 1.86.39.28 1.091.894 1.537 1.91.75 1.653.313 3.214.173 3.61-2.04 2.776-2.6 3.989-2.647 4.519l-.016.09c.032.076.383.84.276 1.71-.007.046-.016.091-.028.16l-.015.09c-.008.046-.02.113-.051.155-.004.023-.012.068-.038.087-.012.068-.043.11-.078.174-.004.022-.03.041-.038.087-.038.086-.077.173-.137.256-.252.377-.867 1.111-1.448 1.126-.023-.005-.117.002-.233.005-.165.018-.379.05-.511.144-.026.019-.11.097-.264.188-.027.018-.053.037-.102.052-.818.44-1.859.701-2.78.68-.007 1.87-.013 3.742-.023 5.635l4.89 1.004c1.889-.346 3.796-.665 5.685-1.011l.019-4.7.01-.326s-.01-.072-.035-.194c.549-.09 1.243-.225 2.043-.692 2.739-1.624 3.48-5.565 3.21-8.234.014-.606-.085-1.092-.186-1.437z"/>
            <path fill="#000" d="M66.755 138.574c-.469-1.018-1.153-1.607-1.54-1.909.418-.136 1.59-.608 2.46-1.858.746-1.085.844-2.167.876-2.605-.547-.448-1.246-.946-2.069-1.278-2.976-1.25-6.627-.256-8.892 1.824-.721.668-1.213 1.353-1.484 1.844l-.004.022c-1.813 3.189-1.474 7.833.554 11.441.07.13.162.263.232.392.07.13.162.263.236.37.236.368 1.203 1.451 1.508 1.692.079.084.183.15.283.238l-.006 2.267-.008.7c.923.023 1.961-.215 2.784-.678.027-.019.053-.037.102-.053.155-.089.239-.168.265-.186.11-.099.324-.13.511-.144.117-.003.211-.01.233-.006.578.008 1.22-.744 1.45-1.124.221-.336.334-.713.372-1.058.08-.851-.253-1.588-.264-1.66l.016-.091c.047-.53.608-1.74 2.65-4.514.049-.413.487-1.973-.264-3.626z"/>
            <path fill="#FF6876" d="M67.293 142.665c-.307-.758-.856-1.323-1.493-1.647-.574-.289-1.221-.427-1.863-.329-.286.043-.553.114-.828.23-1.65.694-2.426 2.597-1.77 4.261.678 1.667 2.556 2.444 4.202 1.772 1.632-.72 2.43-2.62 1.752-4.287z"/>
            <path fill="#000" d="M66.338 145.13c-.4-.095-.697-.381-.813-.777-.102-.346-.041-.687.15-.982l-3.092-.873c-.067-.012-.1-.088-.07-.13.012-.067.087-.101.129-.07l3.267.927c.045.008.063.035.078.084.014.05.01.072-.02.114-.228.241-.311.578-.228.898.087.296.347.53.657.608.068.011.105.065.093.133-.03.041-.084.079-.151.067zM69.33 136.351c.756-.673 1.234-1.371 1.067-1.559-.168-.189-.916.204-1.672.877-.756.673-1.233 1.371-1.066 1.56.167.188.915-.206 1.671-.878zM71.66 146.505c-.653-.115-1.3-.534-1.718-1.192-.018-.027-.033-.076-.002-.118.03-.041.056-.06.102-.052l3.867-.325c.044.008.067.012.108.042.019.027.033.076.029.1-.089.241-.403 1.099-1.249 1.417-.378.168-.777.191-1.137.128zm-1.424-1.168c.624.809 1.61 1.146 2.433.825.624-.24.93-.792 1.057-1.119l-3.49.294zM71.097 138.792c.293.053.573-.146.626-.442.052-.296-.144-.578-.437-.63-.293-.052-.573.147-.626.442-.052.297.144.579.437.63z"/>
            <path fill="#FF6876" d="M12.98 152.538c.666-.203 1.33-.425 1.996-.627 2.678-.87 5.252-1.785 7.724-2.746-.174-.722-2.18-9.349-3.31-10.008-.524-.306-.966-.221-.966-.221-.02.002-.459.124-.695.49-.232.404-.092.806-.086.863-.154-.344-.289-.69-.44-1.016-.223-.621-.925-.946-1.552-.748-.513.168-.815.655-.781 1.164-.257-.58-.918-.89-1.526-.693-.627.198-.949.877-.707 1.496l.847 2.264-.361-.816c-.279-.597-.996-.882-1.6-.648-.602.254-.884.928-.604 1.543l.437.978 2.306 5.126c-.691.148-1.388.24-2.07.293.226.659.497 1.37.81 2.096.2.415.381.833.578 1.21zm4.87-4.792c.002.018.025.053.047.07-.02.002-.037.023-.037.023l-.01-.093z"/>
            <path fill="#000" d="M17.691 140.412c0-.037.019-.073.074-.091.056-.019.093.018.111.054l.927 3.197c.018.056-.019.093-.056.111-.055.018-.093-.018-.111-.055l-.926-3.197c-.019 0-.019 0-.019-.019zM15.412 139.862c0-.037.037-.074.074-.092.056-.019.094.018.112.073l.972 4.144c.018.055-.019.092-.075.11-.056.018-.093-.018-.112-.073l-.971-4.162c0 .018 0 .018 0 0zM12.946 142.333c0-.034.022-.069.089-.085.066-.018.11.017.133.069l.889 2.571c.022.052-.023.087-.09.103-.066.018-.11-.017-.132-.069l-.889-2.589z"/>
            <path fill="#FA7592" fill-rule="nonzero" d="M24.684 99.657h27.031c1.858 0 3.378 1.277 3.378 2.838v25.544l-6.757-5.676H24.684c-1.858 0-3.379-1.278-3.379-2.838v-17.03c0-1.561 1.52-2.838 3.38-2.838z"/>
            <path fill="#FFDD59" d="M45.52 113.848c-1.244 0-2.252-.977-2.252-2.183s1.008-2.184 2.252-2.184c1.244 0 2.253.978 2.253 2.184 0 1.206-1.009 2.183-2.253 2.183zM39.326 113.848c-1.244 0-2.253-.977-2.253-2.183s1.009-2.184 2.253-2.184c1.244 0 2.253.978 2.253 2.184 0 1.206-1.009 2.183-2.253 2.183zM32.568 113.848c-1.244 0-2.252-.977-2.252-2.183s1.008-2.184 2.252-2.184c1.244 0 2.253.978 2.253 2.184 0 1.206-1.009 2.183-2.253 2.183z"/>
            <g opacity=".712" transform="translate(235.915 37.28)">
                <rect width="104.068" height="110.826" x=".284" y=".206" fill="#D5E0EA" fill-rule="nonzero" rx="6.082"/>
                <rect width="103.716" height="110.475" x=".46" y=".382" stroke="#F8F8F8" stroke-width=".5" rx="5.906"/>
            </g>
            <g transform="translate(236.375 37.662)">
                <mask id="e61pufdjpf" fill="#fff">
                    <use xlink:href="#bsxzu6x74e"/>
                </mask>
                <g mask="url(#e61pufdjpf)">
                    <g>
                        <path fill="#F4FF00" d="M146.488 38.08c-.028-.056-.028-.138-.055-.194l-2.053-7.758-.548-2.071-.63-2.43-19.82 5.329.301 1.187c-.465.138-.903.304-1.314.497-.382.194-.766.414-1.122.663-1.013.69-1.834 1.601-2.436 2.623-.959 1.601-1.369 3.534-1.096 5.495l1.069-.829 1.34-1.049.494-.386c.328-1.63 1.341-3.038 2.819-3.81.302-.166.63-.305.959-.387l.163.607.356 1.408c.274.11.52.276.685.525.383.47.465 1.104.274 1.629-.055.166-.137.331-.274.497l.027.055c.274-.138.575-.165.876-.138.52.055 1.013.331 1.314.773.028.028.055.083.055.11.383.69.247 1.575-.329 2.127-.027.027-.055.055-.082.055.028 0 .082-.028.11-.028.739-.248 1.615 0 2.053.69.246.387.328.829.246 1.243-.082.414-.3.8-.656 1.077.492-.193 1.04-.138 1.505.138.055.028.082.055.137.083.192.11.329.276.465.47.52.8.274 1.904-.52 2.43l-.328.22c.739.552 1.532.966 2.408 1.298.439.165.876.303 1.342.414 1.56.359 3.258.359 4.9-.083 2.136-.58 3.915-1.795 5.229-3.396.301-.36.575-.746.821-1.132 1.451-2.32 1.999-5.164 1.315-7.952z" transform="translate(-20.068 -14.472)"/>
                        <path fill="#1F0D60" d="M125.915 35.492c-.41.14-.819.168-1.228.168l-.163-.616c-.328.112-.656.224-.956.392-.954-.336-1.772-1.093-2.209-2.074.355-.252.737-.476 1.119-.672.79 1.289 2.018 1.99 3.082 1.653 1.118-.364 1.745-1.738 1.636-3.335.41-.14.791-.252 1.201-.364.6 2.018-.518 4.204-2.482 4.848z" transform="translate(-20.068 -14.472)"/>
                        <path fill="#8235FF" d="M131.341 46.364c-.136-.195-.272-.361-.463-.473-.054-.027-.082-.055-.136-.083-.437-.25-.982-.306-1.5-.139.354-.278.572-.667.654-1.084.082-.416 0-.861-.245-1.25-.437-.695-1.31-.973-2.046-.695-.028 0-.082.028-.11.028.028-.028.055-.028.082-.056.573-.556.737-1.417.328-2.14-.028-.027-.055-.055-.055-.11-.3-.473-.79-.751-1.309-.779-.3-.028-.6 0-.873.14-.027 0-.055.027-.109.055.028-.028.055-.056.082-.111.109-.14.218-.334.272-.5.192-.556.11-1.168-.272-1.64-.191-.25-.437-.417-.682-.528-.273-.111-.6-.167-.9-.14-.3.029-.627.168-.873.362l-.082.083-.927.723-1.5 1.195-.492.389-1.336 1.056-1.064.834c-.272-1.973.136-3.919 1.091-5.53-.19-.584-.654-1.057-1.282-1.223-.954-.223-1.909.389-2.154 1.361l-7.692 19.842 13.72-.75 2.318-2.029c.164 0 .355-.055.519-.11.108-.029.217-.084.3-.167l1.418-.918 4.473-2.917.327-.223c.819-.556 1.037-1.667.518-2.473z" transform="translate(-20.068 -14.472)"/>
                        <path fill="#000" d="M117.505 48.13c-.056 1.48-.338 3.434-1.186 5.054-.029.055-.085.083-.142.083-.029 0-.056 0-.056-.028-.057-.028-.085-.111-.057-.195.876-1.62 1.13-3.601 1.187-5.081.056.056.141.112.254.167zM118.97 48.41c-.054 0-.081-.028-.108-.056-.054-.056-.027-.14.027-.196l7.365-5.021c.055-.057.136-.028.19.028.055.056.028.14-.026.196l-7.393 5.021c0 .028-.028.028-.055.028zM116.57 46.333c-.054 0-.081-.027-.108-.055-.055-.055-.028-.138.027-.193l7.806-5.537c.055-.055.136-.028.191.027.055.055.027.138-.027.193l-7.806 5.538c-.028.027-.055.027-.083.027zM122.381 50.232c-.054 0-.082-.028-.109-.056-.054-.055-.027-.138.027-.194l6.04-4.13c.054-.055.136-.028.19.028.054.055.027.138-.028.194l-6.038 4.13c-.027 0-.054.028-.082.028z" transform="translate(-20.068 -14.472)"/>
                        <path fill="#7776B6" d="M114.629 55.444c-1.067.055-5.828.304-6.895.387-.191 3.79-.491 8.824-1.011 14.744-1.423 16.156-2.6 17.29-3.475 17.594-3.611 1.217-6.292-10.18-18.603-17.179-1.45-.83-2.927-1.521-4.377-2.102-3.338-1.356-6.621-2.102-9.521-2.517-.465-.056-.903-.139-1.313-.166-.028 0-.055.027-.082.027v.028c-1.587 4.73-3.147 9.488-4.733 14.219-.602 1.825-1.204 3.624-1.806 5.45-3.009-.084-6.019-.194-9-.277.027-.11.027-.222.054-.388.028-.083.028-.193.055-.304.028-.138.055-.277.055-.415.027-.11.027-.221.055-.36.027-.082.027-.165.055-.276 0-.083.026-.166.026-.25.083-.525.192-1.133.301-1.797.028-.194.055-.36.082-.553.028-.111.028-.194.055-.305 0-.083.027-.138.027-.221.028-.221.083-.443.11-.664v-.083c.027-.221.082-.443.11-.664.273-1.743.602-3.651.875-5.45.027-.138.054-.248.054-.387.056-.387.11-.747.192-1.106.028-.139.055-.277.055-.415.028-.11.028-.194.055-.304.027-.194.054-.388.109-.581l.082-.581c.028-.083.028-.194.055-.277.136-.885.273-1.66.355-2.213-4.65 1.521-8.262 3.458-11.107 5.477-2.763 1.964-4.788 4.04-6.292 5.92-7.004 8.77-9.384 21.633-13.843 21.273-.93-.083-2.353-.885-7.633-16.183-1.778-5.117-3.173-9.544-4.24-13.057C9.001 72.568 4.487 73.646 0 74.752c2.298 11.508 6.566 29.268 12.776 40.056.876 1.522 1.779 2.905 2.736 4.095.902 1.134 2.49 2.932 5.088 3.762 3.694 1.19 7.305-.25 8.7-.803.739-.304 1.423-.663 2.052-1.05 1.286-.775 2.408-1.743 3.529-3.016-.958 4.426-1.942 9.212-2.9 14.44 1.395 0 2.818.028 4.213.028 13.542.083 27.084.166 40.626.221 1.205 0 2.38 0 3.585.028 1.23-12.78 2.434-25.56 3.665-38.341 1.533 1.604 10.67 11.01 16.99 14.19.93.471 2.106.97 3.584 1.246 1.121.221 5.06.885 8.617-1.383 2.326-1.467 3.42-3.597 4.022-4.924.629-1.411 1.176-2.96 1.668-4.648 3.557-12.559 3.201-32.006 2.572-43.597-2.298.139-4.596.25-6.894.388z" transform="translate(-20.068 -14.472)"/>
                        <path fill="#F4FF00" d="M56.227 94.647c.724 0 1.31-.593 1.31-1.326 0-.732-.587-1.326-1.31-1.326-.724 0-1.311.594-1.311 1.326 0 .733.587 1.326 1.31 1.326zM54.837 105.192c.724 0 1.31-.594 1.31-1.326 0-.732-.586-1.326-1.31-1.326-.724 0-1.31.594-1.31 1.326 0 .732.586 1.326 1.31 1.326zM53.764 115.64c.723 0 1.31-.593 1.31-1.325s-.587-1.326-1.31-1.326c-.724 0-1.311.594-1.311 1.326 0 .732.587 1.326 1.31 1.326zM52.374 126.186c.724 0 1.311-.594 1.311-1.326 0-.733-.587-1.326-1.31-1.326-.724 0-1.311.593-1.311 1.326 0 .732.587 1.326 1.31 1.326z" transform="translate(-20.068 -14.472)"/>
                        <path fill="#00CE87" d="M34.873 117.942c-.027 0-.027 0 0 0-.108-.028-.136-.083-.136-.166l4.972-26.629c.027-.083.081-.11.162-.11.081.027.108.083.108.166l-4.971 26.628c-.028.055-.082.11-.136.11z" transform="translate(-20.068 -14.472)"/>
                        <path fill="#1F0D60" d="M126.992 26.745c-.109-.027-.136-.11-.109-.165.925-3.04.897-5.72-.054-7.957-.87-2.044-2.256-3.094-3.86-4.31-1.332-1.022-2.828-2.182-4.214-4.116-1.685-2.404-2.718-5.36-3.017-8.813 0-.083.054-.138.136-.138.082 0 .136.055.136.138.298 3.398 1.277 6.299 2.962 8.675 1.333 1.906 2.774 2.984 4.133 4.033 1.549 1.188 3.017 2.321 3.941 4.42.979 2.294 1.006 5.029.081 8.15-.026.056-.081.083-.135.083zM132.328 25.5c-.108-.028-.135-.111-.108-.166.924-3.04.897-5.72-.054-7.957-.87-2.044-2.256-3.094-3.86-4.31-1.333-1.022-2.828-2.182-4.214-4.116-1.685-2.404-2.718-5.36-3.017-8.813 0-.083.054-.138.135-.138.083 0 .137.055.137.138.299 3.398 1.278 6.299 2.963 8.675 1.331 1.878 2.772 2.983 4.131 4.033 1.55 1.188 3.018 2.321 3.942 4.42.978 2.294 1.006 5.029.081 8.15-.026.028-.081.083-.136.083z" transform="translate(-20.068 -14.472)"/>
                        <path fill="#FF6876" d="M72.986 53.464c-1.751-.22-2.791-1.466-3.038-1.77-.218-.387-.547-1.162-.547-2.213.028-1.52.794-2.544 1.068-2.848-.192.083-1.451.691-2.682.083-1.369-.664-1.806-3.098-1.643-3.983 0-.056.028-.194 0-.222-.191-.11-.82 1.466-2.107 2.268-1.45.913-3.174.47-3.475.415-.739-.166-1.752-.442-2.299-1.41-.766-1.356.137-2.932.219-3.043-.93.498-3.393 1.66-5.966.858-.438-.139-1.094-.332-1.614-.747-.329.442-.602.94-.876 1.438-.192.36-.356.72-.548 1.106-3.229 7.44-1.203 18.145 4.407 21.104.958.498 2.025.775 3.174.885-.137.886-.273 1.743-.383 2.628-.083.553-.219 1.328-.356 2.213 0 .083-.028.193-.054.276l-.083.581c-.027.194-.054.387-.109.581-.027.11-.027.194-.055.304-.027.139-.054.277-.054.415-.056.36-.11.747-.193 1.107-.026.138-.054.248-.054.387-.11.636-.219 1.3-.329 1.964 2.874.802 6.87 1.936 9.852 2.766 1.369-4.15 2.764-8.298 4.133-12.447v-.028-.055c.328-2.268.63-4.536.958-6.777 1.204-1.383 2.189-2.931 2.873-4.646.082-.222.192-.47.274-.72l.164-.497c-.219.055-.438.055-.657.027z" transform="translate(-20.068 -14.472)"/>
                        <path fill="#000" d="M89.104 49.013c-1.422-3.127-6.153-4.76-11.758-4.15-.028 0-.055 0-.083-.028-.875-2.435-2.597-5.48-5.715-8.025 4.54-.221 8.15-4.012 8.15-8.661 0-4.787-3.829-8.69-8.532-8.69-4.703 0-8.532 3.875-8.532 8.69 0 1.798.547 3.486 1.477 4.87-4.622-1.052-7.985-.996-9.954-.83 0 0-3.445.304-4.402 1.826-.466.72-.383 1.411-.383 1.411.027.166.054.526.328.858.355.47.82.581.957.609 0 0-.656.996-.656 2.13-3.828.471-6.837 2.962-7.575 6.06-.82 3.404 1.422 6.338 1.777 6.808-2.543-.138-4.812 1.633-5.305 4.123-.492 2.435.821 4.898 3.118 5.839-3.938 3.044-4.402 7.665-2.625 9.574 1.203 1.3 3.528 1.494 5.742.83.137.47.274.886.438 1.3 2.843-2.02 6.453-3.929 11.102-5.478.136-.886.273-1.743.383-2.629-1.149-.083-2.215-.387-3.172-.885-5.606-2.961-7.63-13.67-4.403-21.114.164-.387.328-.747.547-1.107.273-.498.547-.968.875-1.439.52.415 1.148.61 1.614.747 2.57.775 5.031-.36 5.96-.857-.054.11-.956 1.688-.218 3.044.547.968 1.559 1.245 2.297 1.41.328.056 2.024.499 3.472-.414 1.313-.803 1.915-2.38 2.106-2.27.055.028.028.167 0 .222-.164.886.273 3.32 1.641 3.985 1.23.58 2.488 0 2.68-.083-.246.304-1.04 1.328-1.067 2.85-.027.968.301 1.743.52 2.13 0 .028.027.056.027.056.246.332 1.285 1.55 3.035 1.77.219.029.438.029.656.029l-.163.498c-.082.249-.164.47-.274.72-.683 1.715-1.668 3.264-2.871 4.648-.328 2.27-.629 4.538-.957 6.78v.055c.027 0 .054-.028.082-.028l1.313.166c2.898.415 6.152 1.19 9.516 2.518.41-.83.71-1.577.93-2.186.246-.027 3.773-.36 5.468-3.597 1.148-2.186 1.04-4.815-.273-6.918.438-.166 2.215-.885 3.007-2.767.821-1.965-.054-3.874-.3-4.4z" transform="translate(-20.068 -14.472)"/>
                        <path fill="#000" d="M58.01 55.408l-3.842-.553c-.027 0-.081-.028-.109-.055-.027-.028-.027-.083-.027-.11l1.935-6.474c.027-.083.108-.11.163-.083.082.028.109.11.082.166l-1.908 6.307 3.652.526c.082 0 .136.083.109.166.082.055.028.11-.054.11zM54.508 47.072c-.009-.306-.958-.527-2.119-.494-1.162.033-2.095.308-2.086.614.01.306.959.527 2.12.494 1.161-.033 2.094-.308 2.085-.614zM61.672 47.989c1.114.16 2.053.043 2.097-.262.044-.306-.822-.684-1.935-.845-1.114-.16-2.053-.043-2.098.263-.044.305.823.683 1.937.844zM58.292 59.626c-.9 0-1.583-.392-1.637-.42-.055-.028-.081-.111-.055-.195.028-.056.11-.084.191-.056.055.028 1.474.839 2.865 0 1.172-.7 1.391-2.042 1.391-2.182 0-.084.082-.14.164-.111.081 0 .136.083.108.167-.027.28-.272 1.65-1.527 2.405-.518.308-1.037.392-1.5.392zM57.066 65.697h-.055c-.082 0-.137-.055-.137-.138 0-.083.055-.139.137-.139h.054c.93 0 1.886-.083 2.816-.249l.081-.027c.055 0 .082-.028.137-.028.3-.055.629-.138.984-.221h.027c.191-.056.41-.111.602-.166h.054c.055-.028.11-.028.164-.056.136-.055.273-.083.41-.138 1.694-.554 3.307-1.384 4.755-2.463.028-.028.055-.028.082-.056l.055-.027c.055-.056.136-.028.192.027.054.056.026.139-.028.194l-.028.028c-.026.027-.054.027-.081.055-1.476 1.08-3.089 1.937-4.81 2.519-.137.055-.273.083-.41.138-.055.028-.11.028-.164.055-.027 0-.055 0-.055.028-.191.055-.41.11-.601.166h-.028c-.355.083-.683.166-.983.221-.055 0-.11.028-.137.028l-.082.028c-1.039.138-1.995.221-2.952.221z" transform="translate(-20.068 -14.472)"/>
                        <path fill="#FF6876" d="M77.938 55.723c0 2.822-2.275 5.117-5.069 5.117S67.8 58.545 67.8 55.723c0-1.715.823-3.236 2.11-4.15 0 .028.028.056.028.056.246.332 1.287 1.55 3.04 1.77.22.028.439.028.658.028 1.123-.028 2.192-.498 2.959-1.19.849.941 1.343 2.158 1.343 3.486z" transform="translate(-20.068 -14.472)"/>
                        <path fill="#000" d="M71.227 58.124c-.028 0-.055 0-.082-.027-.054-.056-.081-.139-.027-.194.436-.583.571-1.137.463-1.609-.163-.637-.762-.942-.762-.942-.055-.028-.082-.056-.082-.111 0-.056.028-.111.055-.14l3.97-2.328c.055-.028.136-.028.19.055.028.056.028.139-.053.194l-3.781 2.219c.218.166.571.499.707.998.136.554-.027 1.164-.517 1.83 0 .028-.027.055-.081.055z" transform="translate(-20.068 -14.472)"/>
                        <path fill="#D5E0EA" d="M64.959 49.76c-.165 2.207-2.104 3.924-4.289 3.787-2.13-.136-3.823-1.961-3.796-4.114l8.084.327zM54.885 49.313c-.082 2.181-1.94 3.899-4.124 3.79-2.186-.11-3.907-1.936-3.797-4.117l7.921.327z" transform="translate(-20.068 -14.472)"/>
                        <path fill="#000" d="M57.822 49.785c-.055 0-.083-.029-.11-.057-.055-.084-.575-.953-1.589-1.094-.767-.084-1.534.253-2 .926-.054.056-.137.084-.191.028-.056-.056-.083-.14-.028-.196.52-.758 1.37-1.15 2.246-1.066 1.124.14 1.699 1.038 1.782 1.234.027.056.027.14-.056.196 0 .029-.027.029-.054.029zM69.954 50.647h-.055l-5.467-.383c-.082 0-.136-.077-.136-.128 0-.077.081-.128.136-.128l5.467.384c.082 0 .136.076.136.127.028.077-.026.128-.081.128z" transform="translate(-20.068 -14.472)"/>
                        <path fill="#FFF" d="M51.454 53.235c-.056 0-.113-.027-.142-.082-.254-.494-.367-1.043-.339-1.592.029-1.125.566-1.976 1.019-2.47.056-.055.141-.055.198 0 .056.055.056.137 0 .192-.425.466-.905 1.235-.934 2.278 0 .522.113 1.016.34 1.482.028.083 0 .138-.057.192h-.085zM61.457 53.683c-.057 0-.087-.028-.115-.082-.231-.41-.52-1.067-.52-1.887.028-.984.433-1.722.78-2.16.057-.055.144-.082.202-.027.057.054.087.136.029.191-.318.41-.722 1.094-.722 1.996 0 .766.26 1.367.49 1.75.03.055.03.137-.057.191-.029.028-.058.028-.087.028z" transform="translate(-20.068 -14.472)"/>
                        <path fill="#000" d="M58.775 51.775c.349 0 .632-.286.632-.64 0-.352-.283-.638-.632-.638-.349 0-.631.286-.631.639 0 .353.282.639.631.639zM48.955 51.487c.348 0 .631-.286.631-.639 0-.353-.283-.639-.631-.639-.35 0-.632.286-.632.64 0 .352.282.638.632.638z" transform="translate(-20.068 -14.472)"/>
                        <path fill="#00CE87" d="M73.454 62.694c1.063 0 1.925-.873 1.925-1.95 0-1.076-.862-1.949-1.925-1.949-1.064 0-1.927.873-1.927 1.95 0 1.076.862 1.949 1.927 1.949z" transform="translate(-20.068 -14.472)"/>
                        <path fill="#FFF" d="M55.342 75.923c-.192 1.16-.384 2.347-.575 3.48-.028.22-.083.441-.11.662-.028.249-.082.498-.11.718-.027.166-.055.36-.082.525-.028.193-.055.387-.083.552-.054.332-.109.636-.164.94-.028.138-.055.303-.082.441-.028.138-.055.276-.055.415 0 .082-.028.165-.028.248-.054.387-.109.746-.164 1.022-.028.11-.028.22-.055.304-.027.138-.055.276-.055.386 3.016.083 6.031.194 9.02.277.602-1.823 1.206-3.618 1.809-5.44.192-.58.383-1.188.603-1.768-2.988-.829-7.018-1.961-9.869-2.762z" transform="translate(-20.068 -14.472)"/>
                        <path fill="#1F0D60" d="M65.19 78.798l-9.865-2.775c-.083-.028-.11-.111-.083-.167.028-.083.083-.11.165-.083l9.838 2.776c.082.027.11.11.082.166 0 .056-.055.083-.136.083z" transform="translate(-20.068 -14.472)"/>
                    </g>
                </g>
            </g>
            <path fill="#FF6876" d="M362.795 61.27c-.028-.056-.028-.139-.055-.194l-2.053-7.758-.548-2.072-.63-2.429-19.82 5.329.301 1.187c-.465.138-.903.304-1.314.497-.382.194-.766.415-1.122.663-1.013.69-1.834 1.601-2.436 2.623-.959 1.602-1.369 3.534-1.096 5.495l1.069-.829 1.34-1.049.494-.386c.328-1.63 1.341-3.038 2.819-3.811.301-.166.63-.303.958-.386l.164.607.357 1.408c.273.11.52.276.684.525.383.469.465 1.104.274 1.629-.055.165-.137.331-.274.497l.027.055c.274-.138.575-.166.876-.138.52.055 1.013.332 1.314.773.027.027.055.083.055.11.383.691.247 1.575-.328 2.127-.028.027-.055.055-.082.055.026 0 .082-.028.109-.028.739-.248 1.615 0 2.053.69.247.387.329.829.247 1.243-.082.414-.301.801-.657 1.077.492-.194 1.04-.138 1.505.138.055.027.082.055.137.083.191.11.328.276.465.469.52.801.274 1.906-.52 2.43l-.329.221c.74.552 1.534.966 2.41 1.297.438.166.875.304 1.341.414 1.56.36 3.258.36 4.9-.082 2.135-.58 3.915-1.795 5.229-3.397.301-.358.575-.745.822-1.131 1.45-2.32 1.998-5.163 1.314-7.952z"/>
            <path fill="#1F0D60" d="M360.688 53.309c-.467.557-1.072 1.003-1.815 1.254-1.978.613-4.122-.53-4.754-2.537.412-.14.797-.251 1.21-.363.769 1.367 2.06 2.147 3.188 1.785.851-.279 1.428-1.115 1.621-2.203l.55 2.064zM355.776 60.328c.109 1.595-.517 2.966-1.633 3.33-1.116.364-2.395-.42-3.184-1.791-.409.112-.79.252-1.199.364.6 2.015 2.723 3.19 4.71 2.546 1.96-.615 3.103-2.798 2.477-4.84-.354.14-.762.28-1.17.392zM342.221 58.682c-.409.14-.818.168-1.227.168l-.164-.616c-.327.112-.654.224-.954.392-.955-.336-1.773-1.093-2.21-2.074.355-.252.736-.477 1.118-.672.791 1.289 2.019 1.99 3.083 1.653 1.118-.364 1.745-1.738 1.636-3.335.41-.14.792-.252 1.201-.364.6 2.017-.519 4.203-2.483 4.848zM350.567 73.901c-.456-.11-.884-.248-1.312-.413.642-.607.99-1.654.91-2.84.401-.138.776-.248 1.177-.358.375 1.268.054 2.646-.775 3.611zM361.476 69.284c-.243.386-.515.774-.813 1.134-.597-.47-1.085-1.107-1.302-1.91.406-.137.786-.248 1.194-.359.27.442.569.83.921 1.135z"/>
            <path fill="#FF6876" d="M347.65 69.554c-.136-.195-.273-.362-.464-.472-.054-.028-.082-.056-.136-.084-.437-.25-.983-.306-1.5-.139.354-.278.572-.667.654-1.084.082-.416 0-.862-.245-1.25-.437-.695-1.31-.973-2.046-.695-.028 0-.082.028-.11.028.028-.028.055-.028.082-.056.574-.556.737-1.417.328-2.14-.028-.027-.055-.056-.055-.111-.3-.473-.79-.75-1.309-.778-.3-.028-.6 0-.873.139-.027 0-.055.028-.109.056.027-.028.054-.056.082-.112.109-.139.218-.333.272-.5.192-.556.11-1.167-.272-1.64-.191-.25-.437-.416-.682-.528-.272-.11-.6-.166-.9-.139-.3.029-.627.168-.873.362l-.082.084-.927.722-1.5 1.195-.492.389-1.336 1.056-1.063.834c-.274-1.974.135-3.919 1.09-5.53-.19-.584-.654-1.056-1.282-1.224-.954-.221-1.909.39-2.154 1.363l-7.692 19.841 13.72-.75 2.318-2.029c.164 0 .355-.055.519-.111.108-.028.217-.083.3-.166l1.418-.917 4.473-2.919.328-.222c.817-.555 1.036-1.668.517-2.473z"/>
            <path fill="#000" d="M333.813 71.32c-.056 1.48-.339 3.434-1.186 5.053-.029.056-.086.084-.142.084-.029 0-.057 0-.057-.028-.056-.028-.084-.112-.056-.195.876-1.62 1.13-3.602 1.187-5.081.056.055.141.111.254.167zM335.278 71.6c-.055 0-.082-.028-.109-.056-.054-.056-.027-.14.028-.197l7.365-5.021c.054-.056.136-.028.19.029.055.055.027.14-.027.195l-7.393 5.022c0 .028-.027.028-.054.028zM332.878 69.523c-.054 0-.081-.027-.108-.055-.055-.055-.028-.138.027-.193l7.806-5.538c.055-.055.137-.027.191.028.055.055.028.138-.027.193l-7.806 5.538c-.028.027-.055.027-.083.027zM338.688 73.421c-.053 0-.081-.027-.108-.055-.054-.055-.027-.138.027-.194l6.039-4.13c.054-.055.136-.028.19.028.055.056.027.139-.027.194l-6.038 4.13c-.028 0-.055.027-.083.027z"/>
            <path fill="#1F0D60" d="M343.299 49.935c-.109-.028-.136-.11-.109-.166.925-3.038.897-5.718-.055-7.956-.869-2.044-2.255-3.094-3.86-4.31-1.332-1.022-2.826-2.182-4.213-4.116-1.685-2.404-2.718-5.36-3.017-8.813 0-.083.054-.138.136-.138.082 0 .136.055.136.138.298 3.398 1.277 6.299 2.962 8.675 1.332 1.906 2.774 2.983 4.132 4.033 1.55 1.188 3.018 2.321 3.942 4.42.979 2.294 1.006 5.029.082 8.15-.027.056-.082.083-.136.083zM348.635 48.69c-.108-.029-.135-.111-.108-.166.924-3.04.897-5.719-.054-7.957-.87-2.044-2.257-3.094-3.86-4.31-1.332-1.022-2.827-2.182-4.214-4.116-1.685-2.403-2.718-5.36-3.017-8.813 0-.083.054-.138.135-.138.082 0 .137.055.137.138.298 3.398 1.278 6.299 2.962 8.675 1.333 1.879 2.774 2.984 4.132 4.033 1.55 1.188 3.018 2.32 3.942 4.42.978 2.293 1.006 5.028.082 8.15-.027.028-.082.084-.137.084zM353.941 47.443c-.109-.027-.136-.11-.109-.166.925-3.039.897-5.718-.054-7.956-.87-2.045-2.257-3.094-3.86-4.31-1.332-1.022-2.827-2.182-4.214-4.116-1.685-2.404-2.718-5.36-3.017-8.813 0-.083.054-.138.136-.138.082 0 .136.055.136.138.299 3.398 1.277 6.299 2.963 8.675 1.332 1.878 2.772 2.983 4.131 4.033 1.55 1.188 3.018 2.32 3.942 4.42.979 2.293 1.006 5.028.082 8.15-.027.028-.082.083-.136.083z"/>
            <path fill="#FF6876" d="M226.048 85.467c-1.887-2.874-3.991-4.836-5.522-6.052-.492-.525-1.23-.636-1.804-.359-.136.082-.273.166-.41.276-.628.608-.628 1.658-.054 2.322l2.897 3.178-3.417-.442-8.636-6.356c-.71-.526-1.695-.333-2.186.386-.356.553-.356 1.272-.028 1.796l-.246-.11c-.71-.525-1.695-.331-2.186.387-.492.746-.328 1.769.383 2.294l.436.303c-.546-.055-1.093.194-1.42.691-.192.276-.274.608-.274.94 0 .525.246 1.05.684 1.354l1.01.746c-.163.028-.355.055-.492.139-.218.11-.41.276-.573.469-.52.718-.383 1.741.3 2.293 1.558 1.245 3.362 2.626 8.063 4.533 1.394.553 2.487 1.023 3.061 1.271l.656 2.404c4.51-1.078 9.02-2.156 13.502-3.26-.41-2.129-1.394-5.61-3.744-9.203z"/>
            <path fill="#1F0000" d="M222.143 91.954c-.028 0-.056 0-.084-.027-2.97-2.513-.679-5.862-.65-5.89.056-.056.141-.083.198-.028.056.056.084.14.028.196 0 0-.566.81-.764 1.898-.255 1.424.198 2.651 1.357 3.656.057.056.057.14.029.195-.029-.027-.085 0-.114 0zM214.873 85.883c-.028 0-.055 0-.083-.027l-8.025-5.535c-.055-.056-.083-.14-.028-.195.055-.056.138-.084.192-.028l8.026 5.535c.055.056.082.139.027.195 0 .028-.054.055-.11.055zM213.282 88.248c-.027 0-.055 0-.082-.028l-8.037-5.016c-.055-.028-.083-.138-.055-.194.027-.056.136-.084.191-.056l8.038 5.017c.055.028.082.138.055.194 0 .055-.055.083-.11.083zM212.875 91.38c-.027 0-.054 0-.054-.028l-7.596-4.441c-.054-.028-.082-.111-.054-.194.026-.055.109-.084.19-.055l7.597 4.44c.054.028.082.111.054.194-.054.083-.082.083-.137.083z"/>
            <path fill="#7776B6" d="M241.696 123.918c-.93-.083-2.353-.886-7.633-16.183-1.778-5.117-3.174-9.543-4.24-13.057-4.514 1.079-9.029 2.158-13.516 3.264 2.299 11.508 6.567 29.268 12.776 40.057.876 1.521 1.779 2.904 2.737 4.094.902 1.133 2.489 2.932 5.088 3.762 3.693 1.189 7.305-.25 8.7-.802.738-.305 1.422-.665 2.052-1.052 1.286-.775 2.407-1.743 3.529-3.015-.958 4.426-5.034-16.708-9.493-17.068z"/>
            <path fill="#2CC7CF" fill-rule="nonzero" d="M213.425 30.053h34.06c2.341 0 4.256 1.49 4.256 3.311v29.802l-8.514-6.623h-29.802c-2.341 0-4.257-1.49-4.257-3.312V33.364c0-1.821 1.916-3.311 4.257-3.311z"/>
            <path fill="#FFDD59" d="M240.17 47.737c-1.521 0-2.754-1.233-2.754-2.755 0-1.521 1.233-2.755 2.755-2.755 1.522 0 2.755 1.234 2.755 2.755 0 1.522-1.233 2.755-2.755 2.755zM231.905 47.737c-1.521 0-2.755-1.233-2.755-2.755 0-1.521 1.234-2.755 2.755-2.755 1.522 0 2.756 1.234 2.756 2.755 0 1.522-1.234 2.755-2.756 2.755zM223.64 47.737c-1.521 0-2.755-1.233-2.755-2.755 0-1.521 1.234-2.755 2.755-2.755 1.522 0 2.755 1.234 2.755 2.755 0 1.522-1.234 2.755-2.755 2.755z"/>
            <rect width="39.194" height="18.922" x="268.635" y="123.984" fill="#FA7592" fill-rule="nonzero" rx="9.461"/>
            <path fill="#FFF" fill-rule="nonzero" d="M288.233 131.069c-1.356 0-2.66.21-3.885.604v2.605c0 .332-.195.617-.474.755-.823.412-1.579.936-2.25 1.553-.153.146-.36.238-.592.238-.232 0-.443-.092-.595-.247l-2.091-2.077c-.156-.155-.25-.364-.25-.595 0-.231.094-.44.25-.596 2.572-2.429 6.056-3.918 9.887-3.918 3.831 0 7.315 1.489 9.887 3.918.156.151.25.365.25.596 0 .23-.094.44-.25.591l-2.09 2.076c-.152.151-.363.248-.595.248-.229 0-.44-.092-.592-.239-.672-.617-1.428-1.141-2.251-1.552-.279-.138-.473-.423-.473-.755v-2.605c-1.225-.39-2.53-.6-3.886-.6z"/>
            <path fill="#5B95BF" fill-rule="nonzero" d="M102.212 4.331c0 2.392-1.94 4.331-4.331 4.331-2.392 0-4.331-1.94-4.331-4.331C93.55 1.939 95.489 0 97.881 0c2.391 0 4.331 1.939 4.331 4.331z"/>
            <circle cx="359.185" cy="107.987" r="5.775" fill="#FA7592" fill-rule="nonzero"/>
            <circle cx="314.721" cy="306.058" r="14.437" fill="#F4CE45" fill-rule="nonzero"/>
            <circle cx="8.662" cy="215.395" r="8.662" fill="#EF90A4" fill-rule="nonzero"/>
        </g>
    </g>
</svg>
